<?xml version="1.0" standalone="no"?>
<!DOCTYPE svg PUBLIC "-//W3C//DTD SVG 20010904//EN"
 "http://www.w3.org/TR/2001/REC-SVG-20010904/DTD/svg10.dtd">
<svg version="1.0" xmlns="http://www.w3.org/2000/svg"
 width="468.000000pt" height="195.000000pt" viewBox="0 0 468.000000 195.000000"
 preserveAspectRatio="xMidYMid meet">

<g transform="translate(0.000000,195.000000) scale(0.100000,-0.100000)"
fill="#000000" stroke="none">
<path d="M849 1857 c-149 -101 -403 -296 -412 -315 -10 -21 -7 -32 14 -70 l26
-46 -101 -71 -100 -70 -63 -120 c-99 -188 -98 -165 -10 -341 41 -82 86 -158
98 -170 56 -49 581 -405 592 -401 19 7 559 386 586 410 23 22 161 296 161 322
0 22 -116 244 -156 298 -19 27 -57 62 -84 79 -43 27 -47 32 -37 49 14 23 35
18 93 -22 68 -46 103 -95 182 -255 l75 -153 -76 -156 c-42 -86 -86 -170 -98
-187 -12 -16 -53 -50 -91 -74 -47 -30 -74 -55 -83 -77 -7 -18 -10 -33 -5 -35
10 -4 187 125 211 154 24 28 189 359 189 379 0 31 -171 354 -200 378 -15 12
-53 38 -84 57 -42 26 -61 45 -78 80 -32 67 -52 85 -183 162 -66 39 -166 104
-222 144 -56 41 -103 74 -106 74 -2 0 -19 -10 -38 -23z m175 -124 c75 -48 134
-88 132 -90 -6 -6 -165 55 -213 82 -25 14 -52 25 -60 25 -8 0 -63 -34 -121
-75 -71 -50 -116 -75 -135 -75 -65 0 -137 -59 -137 -112 0 -26 -29 -10 -37 20
-8 31 13 49 124 110 43 23 125 78 183 122 58 43 110 79 117 79 6 1 73 -38 147
-86z m121 -152 c33 -17 67 -36 75 -43 31 -26 60 -71 60 -92 -1 -16 -5 -13 -20
15 -26 50 -92 105 -154 128 -28 11 -44 20 -36 20 8 1 42 -12 75 -28z m95 -1
c45 -23 85 -71 96 -115 9 -38 -1 -29 -29 26 -16 32 -37 53 -77 77 -59 35 -53
44 10 12z m104 -31 c18 -21 26 -42 25 -67 l0 -37 -15 47 c-8 27 -27 57 -44 72
-17 13 -30 27 -30 31 0 12 39 -15 64 -46z m-234 9 c41 -22 92 -90 77 -104 -3
-3 -13 10 -22 30 -18 38 -68 74 -119 86 -28 7 -28 8 -6 9 14 1 46 -9 70 -21z
m-517 -7 c-23 -11 -44 -29 -48 -41 -4 -12 -9 -19 -12 -17 -3 3 -2 15 2 26 7
24 50 50 80 50 12 0 4 -7 -22 -18z m382 -5 c33 -14 85 -61 85 -76 0 -4 -16 8
-36 26 -19 19 -56 40 -82 48 -29 9 -38 15 -24 15 12 1 38 -6 57 -13z m106 -9
c19 -14 59 -77 59 -92 0 -5 -10 6 -21 25 -12 19 -33 45 -48 57 -27 23 -18 32
10 10z m-153 -48 c30 -17 52 -33 49 -35 -8 -8 -57 8 -52 17 7 10 -23 27 -72
38 -36 8 -36 9 -8 10 17 0 54 -13 83 -30z m53 1 c31 -25 12 -26 -21 0 -14 11
-20 20 -14 20 7 0 22 -9 35 -20z m-78 -17 c-7 -2 -19 -2 -25 0 -7 3 -2 5 12 5
14 0 19 -2 13 -5z m233 -89 c37 -22 54 -26 94 -22 l50 5 0 -71 c0 -39 5 -88 9
-110 12 -51 5 -69 -25 -62 -46 12 -57 -53 -24 -149 11 -31 17 -62 14 -67 -3
-5 -20 -8 -38 -7 -17 1 -44 1 -61 0 -27 -1 -28 -3 -12 -15 16 -12 14 -14 -20
-20 -21 -4 -57 -21 -80 -37 -29 -21 -43 -26 -43 -16 0 8 -9 22 -20 32 -11 10
-25 33 -32 51 -15 42 -29 43 -63 2 l-27 -33 27 48 c21 38 26 58 22 90 -7 65
11 124 52 165 57 59 71 84 71 130 0 40 -2 43 -22 36 -47 -14 -52 -15 -33 -2
11 7 33 28 50 45 36 40 53 41 111 7z m-360 -238 c30 -32 30 -33 22 -101 -13
-105 -9 -224 8 -256 29 -56 118 -152 178 -191 33 -21 65 -46 69 -54 5 -8 3
-31 -4 -52 -13 -40 -10 -42 -39 35 -8 21 -44 59 -99 104 -162 135 -171 146
-171 205 0 51 -5 63 -78 199 -34 61 -24 127 20 145 33 12 59 3 94 -34z m47
-468 c71 -78 107 -125 107 -140 0 -29 -42 -119 -63 -136 -14 -12 -24 -1 -84
79 -137 187 -210 292 -238 343 l-29 53 24 38 23 37 76 -78 c42 -44 125 -132
184 -196z m407 187 c14 -16 10 -18 -14 -9 -9 3 -16 10 -16 15 0 14 16 11 30
-6z m-586 -300 l28 -40 -37 40 c-41 45 -175 242 -175 258 0 6 35 -41 78 -104
42 -63 90 -132 106 -154z m541 225 c3 -6 -4 -10 -17 -10 -13 0 -30 -4 -38 -10
-16 -10 -11 -13 35 -23 11 -3 -3 -5 -30 -6 -60 -1 -92 -21 -98 -59 -4 -26 -4
-26 -5 -2 -3 36 30 83 69 103 38 19 75 22 84 7z m-212 -32 c-4 -7 -10 -31 -14
-53 l-6 -40 -2 41 c0 22 4 45 11 52 16 16 21 15 11 0z m122 -125 c-9 -50 -17
-34 -9 18 4 24 9 38 12 31 2 -7 1 -29 -3 -49z m115 29 c0 -15 -2 -15 -10 -2
-13 20 -13 33 0 25 6 -3 10 -14 10 -23z m-31 -30 c1 -7 -3 -10 -9 -7 -5 3 -10
18 -9 33 0 24 1 25 9 7 5 -11 9 -26 9 -33z m-36 -34 c-8 -31 -9 -29 -9 21 0
43 2 50 9 33 6 -14 6 -34 0 -54z"/>
<path d="M1053 1120 c-18 -11 -33 -24 -33 -30 0 -5 1 -10 3 -10 1 0 20 -7 42
-15 29 -10 34 -14 17 -15 -13 0 -21 -4 -18 -9 8 -13 42 -2 62 20 9 10 21 19
25 19 14 0 59 47 52 53 -15 16 -119 7 -150 -13z m45 -17 c-21 -5 -23 -19 -5
-26 6 -3 2 -6 -10 -6 -14 -1 -23 5 -23 13 0 15 16 25 40 24 10 0 9 -2 -2 -5z"/>
<path d="M683 1163 c-20 -7 -15 -22 5 -17 23 6 51 -13 35 -23 -24 -16 -20 -70
7 -78 28 -9 25 -25 -4 -25 -13 0 -30 10 -39 23 -9 12 -16 17 -16 10 -1 -17 58
-63 73 -57 10 4 14 26 14 80 1 62 -2 76 -18 84 -20 11 -37 12 -57 3z"/>
<path d="M756 935 c-3 -9 -6 -22 -5 -28 0 -7 5 -1 10 12 5 13 8 26 5 28 -2 2
-6 -3 -10 -12z"/>
<path d="M293 1414 l-111 -75 -37 -84 c-21 -46 -62 -127 -91 -180 l-53 -96 91
-177 c50 -97 100 -188 112 -200 23 -26 189 -152 200 -152 4 0 6 12 4 27 -2 22
-19 39 -72 75 -39 27 -79 57 -90 67 -12 11 -59 96 -105 189 l-84 169 87 174
87 174 85 55 c55 36 87 63 91 78 3 13 3 25 1 27 -3 3 -54 -29 -115 -71z"/>
<path d="M437 473 c-11 -11 -8 -58 6 -76 15 -20 417 -309 437 -314 12 -3 368
240 443 302 21 18 25 100 4 92 -7 -3 -105 -71 -218 -152 -112 -81 -209 -149
-216 -152 -6 -3 -109 65 -228 151 -119 86 -217 156 -219 156 -1 0 -6 -3 -9 -7z"/>
</g>
</svg>
